<svg xmlns="http://www.w3.org/2000/svg" width="37.64" height="37.64" viewBox="0 0 37.64 37.64">
  <g id="Group_16" data-name="Group 16" transform="translate(-24 -1436)">
    <g id="Group_1" data-name="Group 1" transform="translate(24 1436)">
      <path id="Path_331" data-name="Path 331" d="M55.774,144.95h0a18.82,18.82,0,0,1-18.82-18.82h0a18.82,18.82,0,0,1,18.82-18.82h0a18.82,18.82,0,0,1,18.82,18.82h0A18.82,18.82,0,0,1,55.774,144.95Z" transform="translate(-36.954 -107.31)" fill="#82b6c0"/>
    </g>
    <path id="Path_332" data-name="Path 332" d="M75.036,138.472H72.064v9.562H67.659v-9.562H65.564v-3.743h2.095v-2.422a4.131,4.131,0,0,1,4.445-4.445l3.263.014v3.634H73a.9.9,0,0,0-.934,1.02v2.2h3.356Zm.513.112" transform="translate(-28.96 1317.193)" fill="#e7e8e9"/>
  </g>
</svg>
