<svg xmlns="http://www.w3.org/2000/svg" width="37.771" height="37.771" viewBox="0 0 37.771 37.771">
  <g id="Group_17" data-name="Group 17" transform="translate(-3486.828 -1349.87)">
    <g id="Group_2" data-name="Group 2" transform="translate(3486.828 1349.87)">
      <path id="Path_333" data-name="Path 333" d="M283.667,370.951h0a18.885,18.885,0,0,1-18.885-18.885h0a18.885,18.885,0,0,1,18.885-18.885h0a18.885,18.885,0,0,1,18.885,18.885h0A18.885,18.885,0,0,1,283.667,370.951Z" transform="translate(-264.782 -333.18)" fill="#82b6c0"/>
    </g>
    <g id="Group_4" data-name="Group 4" transform="translate(3495.5 1358.571)">
      <g id="Group_3" data-name="Group 3">
        <path id="Path_334" data-name="Path 334" d="M299.194,352.863H290.03a5.63,5.63,0,0,0-5.63,5.63v9.164a5.63,5.63,0,0,0,5.63,5.63h9.164a5.63,5.63,0,0,0,5.63-5.63v-9.164A5.63,5.63,0,0,0,299.194,352.863Zm3.98,14.771a4,4,0,0,1-4,4h-9.117a4,4,0,0,1-4-4v-9.117a4,4,0,0,1,4-4h9.117a4,4,0,0,1,4,4Z" transform="translate(-284.4 -352.863)" fill="#e7e8e9"/>
        <path id="Path_335" data-name="Path 335" d="M300.707,363.789a5.382,5.382,0,1,0,5.383,5.382A5.382,5.382,0,0,0,300.707,363.789Zm0,8.893a3.511,3.511,0,1,1,3.511-3.511A3.511,3.511,0,0,1,300.707,372.682Z" transform="translate(-290.495 -358.959)" fill="#e7e8e9"/>
        <path id="Path_336" data-name="Path 336" d="M319.773,361.859a1.208,1.208,0,1,1-1.208-1.207A1.207,1.207,0,0,1,319.773,361.859Z" transform="translate(-302.788 -357.209)" fill="#e7e8e9"/>
      </g>
    </g>
  </g>
</svg>
