<svg xmlns="http://www.w3.org/2000/svg" width="37.64" height="37.64" viewBox="0 0 37.64 37.64">
  <g id="Group_20" data-name="Group 20" transform="translate(-3486.828 -1124)">
    <g id="Group_11" data-name="Group 11" transform="translate(3486.828 1124)">
      <path id="Path_341" data-name="Path 341" d="M283.6,144.95h0a18.82,18.82,0,0,1-18.82-18.82h0a18.82,18.82,0,0,1,18.82-18.82h0a18.82,18.82,0,0,1,18.82,18.82h0A18.82,18.82,0,0,1,283.6,144.95Z" transform="translate(-264.782 -107.31)" fill="#82b6c0"/>
    </g>
    <g id="Group_14" data-name="Group 14" transform="translate(3496.617 1132.81)">
      <g id="Group_13" data-name="Group 13" transform="translate(0 0)">
        <g id="Group_12" data-name="Group 12">
          <path id="Path_342" data-name="Path 342" d="M307.416,140.228v7.041h-4.081V140.7c0-1.649-.59-2.776-2.068-2.776a2.233,2.233,0,0,0-2.094,1.493,2.8,2.8,0,0,0-.135,1v6.857h-4.082s.055-11.125,0-12.277h4.082v1.74c-.009.014-.02.027-.027.04h.027v-.04a4.053,4.053,0,0,1,3.678-2.028c2.686,0,4.7,1.755,4.7,5.525Zm-18.8,7.041H292.7V134.991h-4.081Zm0,0,4.2-16.443a2.1,2.1,0,1,1-2.1-2.1A2.1,2.1,0,0,1,292.82,130.825Z" transform="translate(-288.618 -128.724)" fill="#e7e8e9"/>
        </g>
      </g>
    </g>
  </g>
</svg>
