<svg xmlns="http://www.w3.org/2000/svg" width="37.64" height="37.64" viewBox="0 0 37.64 37.64">
  <g id="Group_19" data-name="Group 19" transform="translate(-187.655 -1429.87)">
    <g id="Group_15" data-name="Group 15" transform="translate(187.655 1429.87)">
      <path id="Path_343" data-name="Path 343" d="M396.429,370.82h0A18.82,18.82,0,0,1,377.609,352h0a18.82,18.82,0,0,1,18.82-18.82h0A18.82,18.82,0,0,1,415.249,352h0A18.82,18.82,0,0,1,396.429,370.82Z" transform="translate(-377.609 -333.18)" fill="#82b6c0"/>
    </g>
    <path id="Path_344" data-name="Path 344" d="M412.857,374.032a6.3,6.3,0,0,1-3.211-.875l-.022-.013-.027,0a10.468,10.468,0,0,1-1.552.115,10.079,10.079,0,0,1-10.2-9.933,9.866,9.866,0,0,1,.117-1.51l0-.026-.014-.022a5.9,5.9,0,0,1-.9-3.127,6.106,6.106,0,0,1,6.177-6.018,6.3,6.3,0,0,1,3.21.875l.023.013.026,0a11.446,11.446,0,0,1,1.552-.116,9.862,9.862,0,0,1,10.2,9.933,9.644,9.644,0,0,1-.119,1.511l0,.026.013.022a5.877,5.877,0,0,1,.9,3.127A6.106,6.106,0,0,1,412.857,374.032Zm-9-9.063a1.275,1.275,0,0,0-.9.326,1.042,1.042,0,0,0-.351.785,2.831,2.831,0,0,0,.586,1.618,4.266,4.266,0,0,0,1.516,1.326,7.145,7.145,0,0,0,3.338.693,7.691,7.691,0,0,0,2.919-.507,4.172,4.172,0,0,0,1.872-1.4,3.4,3.4,0,0,0,.638-2.018,3.147,3.147,0,0,0-.369-1.58,3.037,3.037,0,0,0-1.03-1.068,6.633,6.633,0,0,0-1.593-.716c-.632-.2-1.336-.379-2.092-.539-.675-.155-1.083-.254-1.323-.32a4.42,4.42,0,0,1-.79-.3,1.851,1.851,0,0,1-.612-.461.956.956,0,0,1-.222-.633,1.2,1.2,0,0,1,.654-1.015,3.149,3.149,0,0,1,1.722-.423,2.827,2.827,0,0,1,1.67.388,3.263,3.263,0,0,1,.893,1.087,2.858,2.858,0,0,0,.538.706,1.081,1.081,0,0,0,.727.216,1.177,1.177,0,0,0,.877-.359,1.139,1.139,0,0,0,.353-.812,2.1,2.1,0,0,0-.281-1.005,3.246,3.246,0,0,0-.888-.982,4.838,4.838,0,0,0-1.524-.751,7.521,7.521,0,0,0-2.177-.282,8.014,8.014,0,0,0-2.743.427,3.882,3.882,0,0,0-1.785,1.22,2.884,2.884,0,0,0-.615,1.813,2.772,2.772,0,0,0,.583,1.794,3.965,3.965,0,0,0,1.577,1.137,14,14,0,0,0,2.466.73c.729.149,1.32.293,1.755.428a2.725,2.725,0,0,1,1.069.584,1.27,1.27,0,0,1,.409.989,1.5,1.5,0,0,1-.763,1.284,3.506,3.506,0,0,1-1.991.515,3.438,3.438,0,0,1-1.44-.255,2.249,2.249,0,0,1-.85-.65,4.927,4.927,0,0,1-.562-.981,1.969,1.969,0,0,0-.517-.752A1.137,1.137,0,0,0,403.859,364.969Z" transform="translate(-201.572 1085.36)" fill="#e7e8e9"/>
  </g>
</svg>
