<svg xmlns="http://www.w3.org/2000/svg" width="37.64" height="37.64" viewBox="0 0 37.64 37.64">
  <g id="Group_21" data-name="Group 21" transform="translate(-3373.813 -1236.655)">
    <path id="Path_337" data-name="Path 337" d="M170.587,257.6h0a18.82,18.82,0,0,1-18.82-18.82h0a18.82,18.82,0,0,1,18.82-18.82h0a18.82,18.82,0,0,1,18.82,18.82h0A18.82,18.82,0,0,1,170.587,257.6Z" transform="translate(3222.046 1016.69)" fill="#82b6c0"/>
    <g id="Group_6" data-name="Group 6" transform="translate(3381.739 1244.417)">
      <g id="Group_5" data-name="Group 5" transform="translate(0 0)">
        <path id="Path_338" data-name="Path 338" d="M185.8,250.647c-.268-.147-1.585-.858-1.832-.958s-.428-.152-.62.114-.739.861-.9,1.038-.327.193-.6.046a7.472,7.472,0,0,1-2.145-1.437,8.236,8.236,0,0,1-1.448-1.948c-.15-.279,0-.421.141-.552s.286-.309.428-.463a1.885,1.885,0,0,0,.29-.445.5.5,0,0,0-.005-.479c-.063-.139-.559-1.5-.765-2.058s-.438-.472-.6-.479-.341-.035-.522-.042a1,1,0,0,0-.74.314,3.06,3.06,0,0,0-1.041,2.242,5.305,5.305,0,0,0,1.009,2.864,11.2,11.2,0,0,0,4.508,4.3c2.736,1.2,2.75.833,3.251.806a2.763,2.763,0,0,0,1.892-1.229,2.284,2.284,0,0,0,.208-1.292c-.064-.116-.244-.192-.512-.338Zm-5.015,6.474a8.85,8.85,0,0,1-4.9-1.473l-3.422,1.1,1.112-3.306a8.9,8.9,0,1,1,7.208,3.684Zm0-19.6a10.7,10.7,0,0,0-9.16,16.219l-1.931,5.738,5.922-1.9a10.7,10.7,0,1,0,5.17-20.062Z" transform="translate(-169.695 -237.521)" fill="#e7e8e9" fill-rule="evenodd"/>
      </g>
    </g>
  </g>
</svg>
