<svg xmlns="http://www.w3.org/2000/svg" width="37.64" height="37.64" viewBox="0 0 37.64 37.64">
  <g id="Group_18" data-name="Group 18" transform="translate(-3373.813 -1124)">
    <g id="Group_7" data-name="Group 7" transform="translate(3373.813 1124)">
      <path id="Path_339" data-name="Path 339" d="M170.587,144.95h0a18.82,18.82,0,0,1-18.82-18.82h0a18.82,18.82,0,0,1,18.82-18.82h0a18.82,18.82,0,0,1,18.82,18.82h0A18.82,18.82,0,0,1,170.587,144.95Z" transform="translate(-151.767 -107.31)" fill="#82b6c0"/>
    </g>
    <g id="Group_10" data-name="Group 10" transform="translate(3383.101 1136.536)">
      <g id="Group_9" data-name="Group 9" transform="translate(0 0)">
        <g id="Group_8" data-name="Group 8">
          <path id="Path_340" data-name="Path 340" d="M190.887,137.972a2.824,2.824,0,0,0-2.824-2.825H174.82A2.824,2.824,0,0,0,172,137.972v7.574a2.824,2.824,0,0,0,2.824,2.825h13.244a2.824,2.824,0,0,0,2.824-2.825Zm-11.335,6.983V137.84l5.4,3.557Zm0,0" transform="translate(-171.996 -135.147)" fill="#e7e8e9" fill-rule="evenodd"/>
        </g>
      </g>
    </g>
  </g>
</svg>
